<svg width="358" height="230" viewBox="0 0 358 230" fill="none" xmlns="http://www.w3.org/2000/svg">
<rect x="0.5" y="0.5" width="357" height="229" rx="7.5" fill="#EEF1F0" stroke="#606060"/>
<mask id="path-2-inside-1_22202_44804" fill="white">
<path d="M21 68C21 63.5817 24.5817 60 29 60H329C333.418 60 337 63.5817 337 68V229H21V68Z"/>
</mask>
<path d="M20 68C20 63.0294 24.0294 59 29 59H329C333.971 59 338 63.0294 338 68H336C336 64.134 332.866 61 329 61H29C25.134 61 22 64.134 22 68H20ZM337 229H21H337ZM20 229V68C20 63.0294 24.0294 59 29 59V61C25.134 61 22 64.134 22 68V229H20ZM329 59C333.971 59 338 63.0294 338 68V229H336V68C336 64.134 332.866 61 329 61V59Z" fill="#D9D9D9" mask="url(#path-2-inside-1_22202_44804)"/>
<path d="M21.5 68C21.5 63.8579 24.8579 60.5 29 60.5H329C333.142 60.5 336.5 63.8579 336.5 68V118.5H21.5V68Z" stroke="#D9D9D9"/>
<rect x="21.5" y="118.5" width="315" height="58" stroke="#D9D9D9"/>
<path d="M21.112 38L25.144 26.64H28.552L32.6 38H29.896L29.24 36.016H24.376L23.704 38H21.112ZM25.112 33.872H28.536L28.104 32.592C27.688 31.344 27.176 29.904 26.792 28.608C26.424 29.936 25.944 31.408 25.512 32.672L25.112 33.872ZM35.9671 26.64V38H33.5671V26.64H35.9671ZM40.0921 26.64V38H37.6921V26.64H40.0921ZM45.8011 29.392C48.3611 29.392 50.1851 31.184 50.1851 33.824C50.1851 36.48 48.3611 38.272 45.8011 38.272C43.2251 38.272 41.4011 36.48 41.4011 33.824C41.4011 31.184 43.2251 29.392 45.8011 29.392ZM43.8331 33.824C43.8331 35.328 44.6331 36.24 45.8011 36.24C46.9531 36.24 47.7531 35.328 47.7531 33.824C47.7531 32.368 46.9531 31.424 45.8011 31.424C44.6331 31.424 43.8331 32.368 43.8331 33.824ZM63.4604 29.68L61.1564 38H58.3084L57.7484 35.92C57.4604 34.8 57.2364 33.728 57.0284 32.8C56.8524 33.728 56.6284 34.8 56.3724 35.904L55.8444 38H52.9804L50.6764 29.68H53.2364L53.8284 32.256C54.1164 33.52 54.3724 34.736 54.5644 35.792C54.7724 34.736 55.0124 33.504 55.3324 32.256L55.9884 29.68H58.1804L58.8364 32.256C59.1564 33.52 59.4124 34.752 59.6204 35.824C59.8124 34.768 60.0684 33.536 60.3564 32.256L60.9484 29.68H63.4604ZM70.357 29.68V38H67.957V29.68H70.357ZM67.957 28.64V26.64H70.357V28.64H67.957ZM76.7075 29.392C78.6115 29.392 79.6835 30.56 79.6835 32.304V38H77.2835V32.976C77.2835 32.016 76.8035 31.472 75.8915 31.472C75.0115 31.472 74.4195 32.064 74.4195 33.024V38H72.0195V29.68H74.2435V30.576C74.7395 29.872 75.5715 29.392 76.7075 29.392ZM88.0011 35.36C88.0011 35.984 88.3211 36.112 88.7851 36.112C88.9931 36.112 89.2811 36.08 89.7291 35.984L90.0011 37.904C89.2491 38.128 88.5771 38.208 88.0971 38.208C86.2731 38.208 85.6011 37.44 85.6011 35.792V31.472H84.1451V29.68H85.6011V27.248H88.0011V29.68H89.8731V31.472H88.0011V35.36ZM95.8481 29.392C97.7521 29.392 98.8241 30.56 98.8241 32.304V38H96.4241V33.008C96.4241 32.048 95.9441 31.472 95.0321 31.472C94.1521 31.472 93.5601 32.096 93.5601 33.056V38H91.1601V26.64H93.5601V30.368C94.0721 29.792 94.8241 29.392 95.8481 29.392ZM104.537 38.272C101.785 38.272 100.073 36.544 100.073 33.872C100.073 31.328 101.625 29.392 104.345 29.392C106.937 29.392 108.297 31.008 108.297 33.616C108.297 33.92 108.281 34.352 108.265 34.528H102.393C102.617 35.568 103.353 36.24 104.601 36.24C105.529 36.24 106.105 35.92 106.985 35.184L108.297 36.688C107.049 37.888 105.865 38.272 104.537 38.272ZM102.441 32.848H106.009C105.913 31.872 105.337 31.264 104.297 31.264C103.257 31.264 102.665 31.936 102.441 32.848ZM118.985 26.64C120.937 26.64 122.457 27.664 122.457 29.584C122.457 30.864 121.753 31.68 120.713 32.032C122.041 32.432 122.857 33.344 122.857 34.8C122.857 36.816 121.465 38 119.321 38H113.401V26.64H118.985ZM115.977 36.032H118.361C119.641 36.032 120.265 35.488 120.265 34.576C120.265 33.68 119.641 33.104 118.361 33.104H115.977V36.032ZM115.977 31.104H118.329C119.401 31.104 119.945 30.608 119.945 29.808C119.945 29.008 119.417 28.608 118.345 28.608H115.977V31.104ZM126.94 38.288C125.324 38.288 123.98 37.568 123.98 35.872C123.98 34 125.516 33.28 127.564 32.944L129.468 32.624V32.528C129.468 31.76 128.924 31.36 128.076 31.36C126.94 31.36 126.316 31.968 125.532 32.688L124.012 31.312C125.116 30.064 126.38 29.392 128.044 29.392C130.524 29.392 131.74 30.64 131.74 32.448V38H129.58V37.168C129.1 37.824 128.268 38.288 126.94 38.288ZM126.284 35.68C126.284 36.112 126.7 36.416 127.452 36.416C128.364 36.416 129.468 36 129.468 34.608V34.288L128.092 34.544C126.892 34.768 126.284 35.088 126.284 35.68ZM139.491 32.448C138.531 31.6 137.987 31.424 137.411 31.424C136.131 31.424 135.427 32.448 135.427 33.824C135.427 35.2 136.147 36.224 137.379 36.224C138.163 36.224 138.723 35.84 139.539 34.976L141.139 36.304C139.907 37.824 138.755 38.272 137.331 38.272C134.803 38.272 132.995 36.624 132.995 33.824C132.995 31.04 134.835 29.392 137.379 29.392C138.675 29.392 139.779 29.76 140.947 30.944L139.491 32.448ZM150.194 29.68L147.202 32.784L150.37 38H147.698L145.506 34.336L144.466 35.408V38H142.066V26.64H144.466V32.784L147.346 29.68H150.194ZM154.373 41.152C153.109 41.152 151.797 40.848 150.341 39.952L151.493 38.208C152.693 38.896 153.477 39.152 154.341 39.152C155.413 39.152 156.213 38.64 156.213 37.28V36.8C155.717 37.392 154.965 37.744 153.893 37.744C151.829 37.744 150.229 36.096 150.229 33.568C150.229 31.056 151.829 29.392 153.893 29.392C155.077 29.392 155.861 29.808 156.357 30.496V29.68H158.565V37.504C158.565 39.968 156.677 41.152 154.373 41.152ZM152.645 33.568C152.645 34.864 153.413 35.712 154.469 35.712C155.509 35.712 156.309 34.864 156.309 33.568C156.309 32.272 155.509 31.44 154.469 31.44C153.413 31.44 152.645 32.272 152.645 33.568ZM164.527 29.536C164.959 29.536 165.423 29.664 165.887 29.824L165.439 31.936C164.911 31.808 164.639 31.76 164.351 31.76C163.279 31.76 162.623 32.624 162.623 34.064V38H160.223V29.68H162.447V30.864C162.847 30.08 163.471 29.536 164.527 29.536ZM170.52 29.392C173.08 29.392 174.904 31.184 174.904 33.824C174.904 36.48 173.08 38.272 170.52 38.272C167.944 38.272 166.12 36.48 166.12 33.824C166.12 31.184 167.944 29.392 170.52 29.392ZM168.552 33.824C168.552 35.328 169.352 36.24 170.52 36.24C171.672 36.24 172.472 35.328 172.472 33.824C172.472 32.368 171.672 31.424 170.52 31.424C169.352 31.424 168.552 32.368 168.552 33.824ZM183.695 29.68V38H181.503V37.12C181.103 37.744 180.367 38.272 179.087 38.272C177.055 38.272 176.159 37.216 176.159 35.552V29.68H178.559V34.912C178.559 35.696 178.927 36.176 179.791 36.176C180.735 36.176 181.295 35.68 181.295 34.592V29.68H183.695ZM190.051 29.392C191.955 29.392 193.027 30.56 193.027 32.304V38H190.627V32.976C190.627 32.016 190.147 31.472 189.235 31.472C188.355 31.472 187.763 32.064 187.763 33.024V38H185.363V29.68H187.587V30.576C188.083 29.872 188.915 29.392 190.051 29.392ZM197.956 38.256C195.828 38.256 194.276 36.56 194.276 33.856C194.276 31.12 195.844 29.44 197.972 29.44C199.06 29.44 199.844 29.808 200.388 30.432V26.64H202.788V38H200.564V36.992C200.02 37.776 199.172 38.256 197.956 38.256ZM196.692 33.856C196.692 35.28 197.412 36.224 198.58 36.224C199.684 36.224 200.468 35.28 200.468 33.856C200.468 32.384 199.636 31.504 198.596 31.504C197.492 31.504 196.692 32.4 196.692 33.856Z" fill="#4B4B4B"/>
<rect x="33" y="78" width="24" height="24" rx="4" fill="#D5D5D5"/>
<rect x="44.8994" y="82.8994" width="10.0419" height="10.0419" transform="rotate(45 44.8994 82.8994)" fill="#BEBEBE"/>
<path d="M65.238 95L68.836 85.06H70.53L74.142 95H72.812L71.916 92.466H67.436L66.54 95H65.238ZM67.828 91.374H71.524L71.062 90.072C70.516 88.574 70.026 87.244 69.662 86.026C69.298 87.244 68.822 88.574 68.29 90.086L67.828 91.374ZM82.7932 87.916C84.3332 87.916 85.0892 88.896 85.0892 90.198V95H83.8852V90.534C83.8852 89.54 83.4512 88.938 82.5132 88.938C81.5472 88.938 80.9312 89.666 80.9312 90.674V95H79.7272V90.534C79.7272 89.54 79.2932 88.938 78.3552 88.938C77.4592 88.938 76.7872 89.596 76.7872 90.674V95H75.5832V88.112H76.7172V88.938C77.1232 88.28 77.7672 87.916 78.6912 87.916C79.6712 87.916 80.3432 88.364 80.6792 89.036C81.0992 88.378 81.7712 87.916 82.7932 87.916ZM90.7106 95.182C89.6186 95.182 88.8346 94.748 88.3586 93.964V95H87.2246V85.06H88.4286V89.078C88.9046 88.35 89.6746 87.93 90.7106 87.93C92.4886 87.93 93.7486 89.372 93.7486 91.556C93.7486 93.74 92.4606 95.182 90.7106 95.182ZM88.3866 91.556C88.3866 93.208 89.2966 94.146 90.5286 94.146C91.7186 94.146 92.5166 93.11 92.5166 91.556C92.5166 90.002 91.7326 88.952 90.5286 88.952C89.2826 88.952 88.3866 89.918 88.3866 91.556ZM98.5943 95.196C96.4943 95.196 95.1783 93.754 95.1783 91.598C95.1783 89.442 96.4523 87.916 98.4683 87.916C100.456 87.916 101.576 89.204 101.576 91.234C101.576 91.374 101.562 91.64 101.548 91.766H96.3823C96.4523 93.04 97.1103 94.188 98.6083 94.188C99.4903 94.188 100.008 93.866 100.876 93.04L101.59 93.768C100.582 94.846 99.7143 95.196 98.5943 95.196ZM96.4103 90.87H100.386C100.33 89.68 99.6583 88.882 98.4543 88.882C97.3343 88.882 96.5923 89.596 96.4103 90.87ZM106.199 88.028C106.605 88.028 106.983 88.126 107.291 88.238L107.067 89.246C106.717 89.148 106.437 89.106 106.171 89.106C105.247 89.106 104.561 89.904 104.561 91.304V95H103.357V88.112H104.491V89.148C104.813 88.476 105.387 88.028 106.199 88.028Z" fill="#4B4B4B"/>
<path d="M288 90C288 84.4772 292.822 80 298.769 80H312.231C318.178 80 323 84.4772 323 90C323 95.5228 318.178 100 312.231 100H298.769C292.822 100 288 95.5228 288 90Z" fill="#CECFD1"/>
<path d="M289.5 90C289.5 85.0294 293.529 81 298.5 81C303.471 81 307.5 85.0294 307.5 90C307.5 94.9706 303.471 99 298.5 99C293.529 99 289.5 94.9706 289.5 90Z" fill="#FFFFFD"/>
<path d="M74.408 143.06V153H72.322L69.802 148.968C69.116 147.862 68.416 146.756 67.842 145.706C67.898 146.868 67.926 148.156 67.926 149.57V153H66.022V143.06H68.15L70.824 147.344C71.426 148.324 72.042 149.29 72.574 150.256C72.518 149.206 72.504 148.03 72.504 146.672V143.06H74.408ZM80.1076 153.798C79.6316 155.184 78.9316 155.73 77.6296 155.73C77.0836 155.73 76.5796 155.646 76.2576 155.548L76.5656 154.19C76.7896 154.232 77.1116 154.274 77.4056 154.274C77.8676 154.274 78.3016 154.106 78.5396 153.378L75.8516 145.846H77.7556L78.3856 147.722C78.7356 148.772 79.1416 150.018 79.4076 150.942C79.6876 150.004 80.0516 148.786 80.4016 147.708L81.0176 145.846H82.8656L80.1076 153.798ZM91.9584 145.608C93.4984 145.608 94.3384 146.546 94.3384 148.002V153H92.5184V148.548C92.5184 147.75 92.2104 147.176 91.3844 147.176C90.5584 147.176 90.1244 147.792 90.1244 148.604V153H88.3044V148.548C88.3044 147.75 88.0104 147.176 87.1704 147.176C86.3444 147.176 85.9104 147.806 85.9104 148.604V153H84.0904V145.846H85.7844V146.644C86.1624 146.028 86.8204 145.608 87.8284 145.608C88.7664 145.608 89.4384 146 89.8164 146.658C90.2364 146.056 90.9084 145.608 91.9584 145.608ZM98.8563 153L95.5663 143.06H97.6243L99.1503 147.82C99.5003 148.898 99.8083 149.976 100.102 151.04C100.396 149.976 100.718 148.926 101.054 147.848L102.566 143.06H104.596L101.306 153H98.8563ZM110.84 143.06C112.842 143.06 114.116 144.306 114.116 146.196C114.116 148.086 112.842 149.318 110.84 149.318H108.012V153H106.052V143.06H110.84ZM108.012 147.694H110.49C111.512 147.694 112.17 147.162 112.17 146.196C112.17 145.216 111.512 144.684 110.49 144.684H108.012V147.694ZM124.261 143.06V153H122.175L119.655 148.968C118.969 147.862 118.269 146.756 117.695 145.706C117.751 146.868 117.779 148.156 117.779 149.57V153H115.875V143.06H118.003L120.677 147.344C121.279 148.324 121.895 149.29 122.427 150.256C122.371 149.206 122.357 148.03 122.357 146.672V143.06H124.261Z" fill="#4B4B4B"/>
<rect x="33" y="136" width="24" height="24" rx="4" fill="#14E76F"/>
<path d="M39 144.027C39 143.46 39.4678 143 40.0449 143H43.8491C44.5252 143 45.1168 143.446 45.2913 144.088L47.7212 153.029C47.7662 153.195 48.0146 153.163 48.0146 152.991V143H51V152.973C51 153.54 50.5322 154 49.9551 154H46.1227C45.4485 154 44.8579 153.556 44.6818 152.916L42.2787 144.187C42.2332 144.021 41.9854 144.054 41.9854 144.225V154H39V144.027Z" fill="#242B2D"/>
<path d="M288.5 148C288.5 142.477 293.322 138 299.269 138H312.731C318.678 138 323.5 142.477 323.5 148C323.5 153.523 318.678 158 312.731 158H299.269C293.322 158 288.5 153.523 288.5 148Z" fill="#1486FF"/>
<path d="M304 148C304 143.029 308.029 139 313 139C317.971 139 322 143.029 322 148C322 152.971 317.971 157 313 157C308.029 157 304 152.971 304 148Z" fill="#FFFFFD"/>
<rect x="33" y="193" width="24" height="24" rx="4" fill="#D5D5D5"/>
<path d="M45 199L51.0622 209.5H38.9378L45 199Z" fill="#BEBEBE"/>
<path d="M70.32 200.06C72.182 200.06 73.54 201.152 73.54 203.028C73.54 204.624 72.574 205.646 71.16 205.926L73.89 210H72.42L69.76 206.01H67.436V210H66.148V200.06H70.32ZM67.436 204.932H70.11C71.412 204.932 72.266 204.288 72.266 203.028C72.266 201.782 71.412 201.138 70.096 201.138H67.436V204.932ZM78.3058 202.916C80.3078 202.916 81.7078 204.4 81.7078 206.556C81.7078 208.712 80.3078 210.196 78.3058 210.196C76.2898 210.196 74.8898 208.712 74.8898 206.556C74.8898 204.4 76.2898 202.916 78.3058 202.916ZM76.1218 206.556C76.1218 208.11 76.9758 209.188 78.3058 209.188C79.6358 209.188 80.4758 208.11 80.4758 206.556C80.4758 205.002 79.6358 203.924 78.3058 203.924C76.9758 203.924 76.1218 205.002 76.1218 206.556ZM86.9235 210.182C85.8315 210.182 85.0475 209.748 84.5715 208.964V210H83.4375V200.06H84.6415V204.078C85.1175 203.35 85.8875 202.93 86.9235 202.93C88.7015 202.93 89.9615 204.372 89.9615 206.556C89.9615 208.74 88.6735 210.182 86.9235 210.182ZM84.5995 206.556C84.5995 208.208 85.5095 209.146 86.7415 209.146C87.9315 209.146 88.7295 208.11 88.7295 206.556C88.7295 205.002 87.9455 203.952 86.7415 203.952C85.4955 203.952 84.5995 204.918 84.5995 206.556ZM90.6857 210L93.1917 206.402L90.8957 203.112H92.2257L93.8917 205.562L95.5297 203.112H96.8457L94.5917 206.346L97.0697 210H95.7397L93.8777 207.228L92.0017 210H90.6857Z" fill="#4B4B4B"/>
<path d="M288.5 205C288.5 199.477 293.322 195 299.269 195H312.731C318.678 195 323.5 199.477 323.5 205C323.5 210.523 318.678 215 312.731 215H299.269C293.322 215 288.5 210.523 288.5 205Z" fill="#CECFD1"/>
<path d="M290 205C290 200.029 294.029 196 299 196C303.971 196 308 200.029 308 205C308 209.971 303.971 214 299 214C294.029 214 290 209.971 290 205Z" fill="#FFFFFD"/>
</svg>
